<svg xmlns="http://www.w3.org/2000/svg" viewBox="0 0 1200 700">
  <defs>
    <linearGradient id="g" x1="0%" y1="0%" x2="100%" y2="100%">
      <stop offset="0%" stop-color="#7c3aed" />
      <stop offset="100%" stop-color="#ddd6fe" />
    </linearGradient>
  </defs>
  <rect width="1200" height="700" rx="36" fill="url(#g)" />
  <circle cx="320" cy="260" r="160" fill="#f8fafc" opacity="0.6" />
  <circle cx="880" cy="420" r="220" fill="#0f172a" opacity="0.08" />
  <text x="120" y="160" font-family="'Inter','Segoe UI',sans-serif" font-weight="700" font-size="60" fill="#0b1727">Aviation</text>
  <text x="120" y="230" font-family="'Inter','Segoe UI',sans-serif" font-weight="400" font-size="30" fill="#0f172a" opacity="0.8">Under-headset fit</text>
  <g transform="translate(700 180)">
    <path d="M176 20c-34 12-78 52-100 94-22 42-22 90-12 136 12 44 34 88 70 108 38 22 92 18 138 0 40-16 78-44 98-80 18-34 20-80 4-116-14-34-48-58-76-82-28-24-56-66-122-60z" fill="#f8fafc" stroke="#0f172a" stroke-width="10" stroke-linecap="round" stroke-linejoin="round" opacity="0.9" />
  </g>
</svg>
