<svg xmlns="http://www.w3.org/2000/svg" viewBox="0 0 1600 900">
  <defs>
    <linearGradient id="g" x1="0%" y1="0%" x2="100%" y2="100%">
      <stop offset="0%" stop-color="#1f6f89" />
      <stop offset="50%" stop-color="#2e9fbf" />
      <stop offset="100%" stop-color="#f1f5f9" />
    </linearGradient>
  </defs>
  <rect width="1600" height="900" fill="url(#g)" rx="48" />
  <circle cx="420" cy="320" r="180" fill="#dbeafe" opacity="0.7" />
  <circle cx="1160" cy="540" r="260" fill="#0f172a" opacity="0.12" />
  <text x="120" y="180" font-family="'Inter', 'Segoe UI', sans-serif" font-weight="700" font-size="78" fill="#0b2f42">Slim Fit Earmolds</text>
  <text x="120" y="260" font-family="'Inter', 'Segoe UI', sans-serif" font-weight="400" font-size="34" fill="#083344">Carved for helmets & long wear comfort.</text>
  <g transform="translate(920 160)">
    <path d="M220 30c-40 10-88 50-110 94-24 47-22 106-18 160 2 26-8 62-36 76-28 14-66 5-94-14-28-20-50-48-58-80-13-55 8-120 48-170S78 14 132 4c46-8 106 11 120 26 16 18-2 24-32 29z" fill="#f8fafc" stroke="#0f172a" stroke-width="12" stroke-linecap="round" stroke-linejoin="round" opacity="0.8" />
    <circle cx="158" cy="82" r="22" fill="#22d3ee" opacity="0.9" />
    <circle cx="116" cy="134" r="14" fill="#38bdf8" />
    <path d="M188 202c-32 34-70 56-116 66" stroke="#0ea5e9" stroke-width="18" stroke-linecap="round" />
  </g>
</svg>
