<svg xmlns="http://www.w3.org/2000/svg" viewBox="0 0 1200 700">
  <defs>
    <linearGradient id="g" x1="0%" y1="0%" x2="100%" y2="100%">
      <stop offset="0%" stop-color="#0f766e" />
      <stop offset="100%" stop-color="#a7f3d0" />
    </linearGradient>
  </defs>
  <rect width="1200" height="700" rx="36" fill="url(#g)" />
  <circle cx="320" cy="260" r="160" fill="#f8fafc" opacity="0.6" />
  <circle cx="880" cy="420" r="220" fill="#0f172a" opacity="0.08" />
  <text x="120" y="160" font-family="'Inter','Segoe UI',sans-serif" font-weight="700" font-size="60" fill="#0b1727">Law Enforcement</text>
  <text x="120" y="230" font-family="'Inter','Segoe UI',sans-serif" font-weight="400" font-size="30" fill="#0f172a" opacity="0.8">Secure comms fit</text>
  <g transform="translate(700 180)">
    <path d="M214 18c-56 6-118 36-152 86-32 46-34 112-24 170 6 38 34 78 70 94 38 18 86 12 126-6 48-22 92-64 110-112 16-46 8-104-24-142-26-32-82-48-106-90z" fill="#f8fafc" stroke="#0f172a" stroke-width="10" stroke-linecap="round" stroke-linejoin="round" opacity="0.9" />
  </g>
</svg>
