<svg xmlns="http://www.w3.org/2000/svg" viewBox="0 0 1200 700">
  <defs>
    <linearGradient id="g" x1="0%" y1="0%" x2="100%" y2="100%">
      <stop offset="0%" stop-color="#f97316" />
      <stop offset="100%" stop-color="#fed7aa" />
    </linearGradient>
  </defs>
  <rect width="1200" height="700" rx="36" fill="url(#g)" />
  <circle cx="320" cy="260" r="160" fill="#f8fafc" opacity="0.6" />
  <circle cx="880" cy="420" r="220" fill="#0f172a" opacity="0.08" />
  <text x="120" y="160" font-family="'Inter','Segoe UI',sans-serif" font-weight="700" font-size="60" fill="#0b1727">Motorcycling</text>
  <text x="120" y="230" font-family="'Inter','Segoe UI',sans-serif" font-weight="400" font-size="30" fill="#0f172a" opacity="0.8">Helmet friendly</text>
  <g transform="translate(700 180)">
    <path d="M210 18c-32 6-76 28-104 60-28 34-38 78-46 124-6 38-6 82 16 110 26 32 78 40 126 38 56-2 116-16 150-54 30-34 34-90 14-130-16-34-60-56-92-84-26-22-38-70-64-64z" fill="#f8fafc" stroke="#0f172a" stroke-width="10" stroke-linecap="round" stroke-linejoin="round" opacity="0.9" />
  </g>
</svg>
