<svg xmlns="http://www.w3.org/2000/svg" viewBox="0 0 1200 700">
  <defs>
    <linearGradient id="g" x1="0%" y1="0%" x2="100%" y2="100%">
      <stop offset="0%" stop-color="#475569" />
      <stop offset="100%" stop-color="#cbd5e1" />
    </linearGradient>
  </defs>
  <rect width="1200" height="700" rx="36" fill="url(#g)" />
  <circle cx="320" cy="260" r="160" fill="#f8fafc" opacity="0.6" />
  <circle cx="880" cy="420" r="220" fill="#0f172a" opacity="0.08" />
  <text x="120" y="160" font-family="'Inter','Segoe UI',sans-serif" font-weight="700" font-size="60" fill="#0b1727">Workplace</text>
  <text x="120" y="230" font-family="'Inter','Segoe UI',sans-serif" font-weight="400" font-size="30" fill="#0f172a" opacity="0.8">High attenuation</text>
  <g transform="translate(700 180)">
    <path d="M186 12C126 8 70 40 30 82-12 126-34 188-22 242c12 56 62 110 118 128 52 18 114 6 158-26 50-36 82-98 80-156-2-46-30-94-70-122-28-20-62-30-98-54z" fill="#f8fafc" stroke="#0f172a" stroke-width="10" stroke-linecap="round" stroke-linejoin="round" opacity="0.9" />
  </g>
</svg>
